<?xml version="1.0" standalone="no"?>
<!DOCTYPE svg PUBLIC "-//W3C//DTD SVG 20010904//EN"
 "http://www.w3.org/TR/2001/REC-SVG-20010904/DTD/svg10.dtd">
<svg version="1.0" xmlns="http://www.w3.org/2000/svg"
 width="472.000000pt" height="472.000000pt" viewBox="0 0 472.000000 472.000000"
 preserveAspectRatio="xMidYMid meet">
<metadata>
Created by potrace 1.14, written by Peter Selinger 2001-2017
</metadata>
<g transform="translate(0.000000,472.000000) scale(0.100000,-0.100000)"
fill="#000000" stroke="none">
<path d="M0 2360 l0 -2360 2360 0 2360 0 0 2360 0 2360 -2360 0 -2360 0 0
-2360z m1880 1154 l0 -334 238 0 c130 0 243 -4 250 -8 9 -7 12 -45 10 -158
l-3 -149 -250 -5 -250 -5 0 -685 0 -685 24 -53 c29 -64 64 -95 132 -117 68
-23 208 -16 294 15 93 33 101 34 110 13 18 -44 75 -218 75 -229 0 -26 -198
-96 -325 -113 -370 -52 -600 81 -671 389 -16 67 -18 153 -21 773 l-4 697 -165
0 -164 0 0 160 0 160 170 0 170 0 0 253 0 252 183 86 c100 47 185 84 190 82 4
-2 7 -155 7 -339z m1324 -1984 c166 -84 195 -304 58 -432 -143 -134 -344 -87
-430 100 -56 124 4 272 138 340 61 31 163 27 234 -8z"/>
</g>
</svg>
